<?xml version="1.0" standalone="no"?>
<!DOCTYPE svg PUBLIC "-//W3C//DTD SVG 20010904//EN"
 "http://www.w3.org/TR/2001/REC-SVG-20010904/DTD/svg10.dtd">
<svg version="1.0" xmlns="http://www.w3.org/2000/svg"
 width="900.000000pt" height="399.000000pt" viewBox="0 0 900.000000 399.000000"
 preserveAspectRatio="xMidYMid meet">
<metadata>
Created by potrace 1.10, written by Peter Selinger 2001-2011
</metadata>
<g transform="translate(0.000000,399.000000) scale(0.100000,-0.100000)"
fill="#000000" stroke="none">
<path d="M0 1995 l0 -1995 4500 0 4500 0 0 1995 0 1995 -50 0 -50 0 -2 -1972
-3 -1973 -2154 -3 c-1185 -1 -2159 2 -2163 6 -5 5 -8 893 -8 1975 l0 1967
-2285 0 -2285 0 0 -1995z m4035 1280 l0 -390 -664 -3 c-473 -1 -668 -5 -678
-13 -11 -10 -13 -196 -13 -1092 0 -594 -3 -1084 -8 -1089 -4 -4 -192 -7 -418
-6 l-409 3 -2 1085 c-3 1006 -4 1086 -20 1098 -13 9 -165 12 -679 12 -594 0
-662 2 -668 16 -8 20 -8 738 0 758 6 15 169 16 1783 14 l1776 -3 0 -390z"/>
<path d="M5178 3693 c-10 -2 -18 -12 -18 -21 0 -9 0 -694 0 -1521 -1 -827 3
-1508 8 -1513 4 -4 728 -7 1608 -6 l1599 3 3 409 c2 321 0 411 -10 418 -7 4
-533 8 -1168 8 -1030 0 -1158 2 -1178 16 l-22 15 0 1080 c0 726 -3 1087 -10
1100 -10 18 -25 19 -403 18 -216 -1 -400 -3 -409 -6z"/>
</g>
</svg>
